<svg xmlns="http://www.w3.org/2000/svg" width="32" height="32" viewBox="0 0 32 32">
  <path fill="#646cff" d="M29.883 6.146L17.622 28.896a1.038 1.038 0 0 1-1.794.107l-2.903-4.511l14.796-18.297a.428.428 0 0 0-.465-.682l-6.325 2.241l-4.576-7.373a.857.857 0 0 1 1.2-1.2l16 9.714a.857.857 0 0 1-.097 1.525l-11.834 4.35l9.143 14.222c.25.388.657.609 1.093.609c.014 0 .027 0 .041-.001a1.429 1.429 0 0 0 1.12-.837l12-26a.857.857 0 0 0-1.238-1.077z"/>
  <path fill="#646cff" d="M20.273 2.99L4.32 19.437a.857.857 0 0 0 .628 1.454h10.457l-5.536 8.3a1.038 1.038 0 0 1-1.794-.107L2.117 6.146a.857.857 0 0 1 1.238-1.077l16 9.714a.857.857 0 0 0 1.2-1.2z" opacity=".45"/>
</svg>
